<?xml version="1.0" encoding="UTF-8" standalone="no"?>
<svg
   xmlns:dc="http://purl.org/dc/elements/1.1/"
   xmlns:cc="http://creativecommons.org/ns#"
   xmlns:rdf="http://www.w3.org/1999/02/22-rdf-syntax-ns#"
   xmlns:svg="http://www.w3.org/2000/svg"
   xmlns="http://www.w3.org/2000/svg"
   version="1.1"
   id="svg2"
   xml:space="preserve"
   width="341.76666"
   height="121.3204"
   viewBox="0 0 341.76666 121.3204"><metadata
     id="metadata8"><rdf:RDF><cc:Work
         rdf:about=""><dc:format>image/svg+xml</dc:format><dc:type
           rdf:resource="http://purl.org/dc/dcmitype/StillImage" /><dc:title></dc:title></cc:Work></rdf:RDF></metadata><defs
     id="defs6"><clipPath
       clipPathUnits="userSpaceOnUse"
       id="clipPath20"><path
         d="M 0,90.99 H 256.325 V 0 H 0 Z"
         id="path18" /></clipPath></defs><g
     id="g10"
     transform="matrix(1.3333333,0,0,-1.3333333,0,121.3204)"><path
       d="m 63.282,23.637 h 1.992 V 6.504 h -1.992 z"
       style="fill:#ffffff;fill-opacity:1;fill-rule:nonzero;stroke:none;stroke-width:0.99975002;stroke-miterlimit:4;stroke-dasharray:none"
       id="path12" /><g
       id="g1019"><g
         id="g16"
         clip-path="url(#clipPath20)"
         style="fill:#ffffff;fill-opacity:1"><g
           id="g22"
           transform="translate(78.47,6.5039)"
           style="stroke-width:0.99975002;stroke-miterlimit:4;stroke-dasharray:none;fill:#ffffff;fill-opacity:1"><path
             d="m 0,0 v 8.309 c 0,1.046 -0.238,1.828 -0.715,2.343 -0.476,0.516 -1.222,0.774 -2.238,0.774 -1.344,0 -2.328,-0.363 -2.953,-1.09 C -6.531,9.609 -6.844,8.41 -6.844,6.738 V 0 h -1.945 v 12.844 h 1.582 l 0.316,-1.758 h 0.094 c 0.399,0.633 0.957,1.123 1.676,1.471 0.719,0.347 1.519,0.521 2.402,0.521 1.547,0 2.711,-0.373 3.492,-1.119 0.782,-0.746 1.172,-1.939 1.172,-3.58 L 1.945,0 Z"
             style="fill:#ffffff;fill-opacity:1;fill-rule:nonzero;stroke:none;stroke-width:0.99975002;stroke-miterlimit:4;stroke-dasharray:none"
             id="path24" /></g><g
           id="g26"
           transform="translate(92.6965,10.0078)"
           style="stroke-width:0.99975002;stroke-miterlimit:4;stroke-dasharray:none;fill:#ffffff;fill-opacity:1"><path
             d="m 0,0 c 0,-1.195 -0.445,-2.117 -1.336,-2.766 -0.891,-0.648 -2.141,-0.972 -3.75,-0.972 -1.703,0 -3.031,0.269 -3.984,0.808 v 1.805 c 0.617,-0.312 1.279,-0.559 1.986,-0.738 0.707,-0.18 1.389,-0.27 2.045,-0.27 1.016,0 1.797,0.162 2.344,0.487 0.547,0.324 0.82,0.818 0.82,1.482 0,0.5 -0.217,0.928 -0.65,1.283 -0.434,0.356 -1.28,0.776 -2.537,1.26 -1.196,0.445 -2.045,0.834 -2.549,1.166 -0.504,0.332 -0.879,0.709 -1.125,1.131 -0.246,0.422 -0.369,0.926 -0.369,1.511 0,1.047 0.425,1.874 1.277,2.479 0.851,0.605 2.019,0.908 3.504,0.908 1.383,0 2.734,-0.281 4.054,-0.844 L -0.961,7.148 C -2.25,7.68 -3.418,7.945 -4.465,7.945 -5.387,7.945 -6.082,7.801 -6.551,7.512 -7.02,7.223 -7.254,6.824 -7.254,6.316 -7.254,5.973 -7.166,5.68 -6.99,5.437 -6.814,5.195 -6.531,4.965 -6.141,4.746 -5.75,4.527 -5,4.211 -3.891,3.797 -2.367,3.242 -1.338,2.684 -0.803,2.121 -0.268,1.559 0,0.852 0,0"
             style="fill:#ffffff;fill-opacity:1;fill-rule:nonzero;stroke:none;stroke-width:0.99975002;stroke-miterlimit:4;stroke-dasharray:none"
             id="path28" /></g><g
           id="g30"
           transform="translate(100.009,7.875)"
           style="stroke-width:0.99975002;stroke-miterlimit:4;stroke-dasharray:none;fill:#ffffff;fill-opacity:1"><path
             d="M 0,0 C 0.344,0 0.676,0.025 0.996,0.076 1.316,0.127 1.57,0.18 1.758,0.234 V -1.254 C 1.547,-1.355 1.236,-1.439 0.826,-1.506 0.416,-1.572 0.047,-1.605 -0.281,-1.605 c -2.485,0 -3.727,1.308 -3.727,3.925 v 7.641 h -1.84 v 0.937 l 1.84,0.809 0.82,2.742 h 1.125 V 11.473 H 1.664 V 9.961 H -2.063 V 2.402 c 0,-0.773 0.184,-1.367 0.551,-1.781 C -1.145,0.207 -0.641,0 0,0"
             style="fill:#ffffff;fill-opacity:1;fill-rule:nonzero;stroke:none;stroke-width:0.99975002;stroke-miterlimit:4;stroke-dasharray:none"
             id="path32" /></g><path
           d="m 106.279,6.504 h -1.945 v 12.844 h 1.945 z m -2.11,16.324 c 0,0.445 0.11,0.772 0.328,0.979 0.219,0.207 0.493,0.31 0.821,0.31 0.312,0 0.582,-0.105 0.808,-0.316 0.227,-0.211 0.34,-0.535 0.34,-0.973 0,-0.437 -0.113,-0.764 -0.34,-0.978 -0.226,-0.215 -0.496,-0.323 -0.808,-0.323 -0.328,0 -0.602,0.108 -0.821,0.323 -0.218,0.214 -0.328,0.541 -0.328,0.978"
           style="fill:#ffffff;fill-opacity:1;fill-rule:nonzero;stroke:none;stroke-width:0.99975002;stroke-miterlimit:4;stroke-dasharray:none"
           id="path34" /><g
           id="g36"
           transform="translate(114.552,7.875)"
           style="stroke-width:0.99975002;stroke-miterlimit:4;stroke-dasharray:none;fill:#ffffff;fill-opacity:1"><path
             d="M 0,0 C 0.344,0 0.676,0.025 0.996,0.076 1.316,0.127 1.57,0.18 1.758,0.234 V -1.254 C 1.547,-1.355 1.236,-1.439 0.826,-1.506 0.416,-1.572 0.047,-1.605 -0.281,-1.605 c -2.485,0 -3.727,1.308 -3.727,3.925 v 7.641 h -1.84 v 0.937 l 1.84,0.809 0.82,2.742 h 1.125 V 11.473 H 1.664 V 9.961 H -2.063 V 2.402 c 0,-0.773 0.184,-1.367 0.551,-1.781 C -1.145,0.207 -0.641,0 0,0"
             style="fill:#ffffff;fill-opacity:1;fill-rule:nonzero;stroke:none;stroke-width:0.99975002;stroke-miterlimit:4;stroke-dasharray:none"
             id="path38" /></g><g
           id="g40"
           transform="translate(120.7044,19.3477)"
           style="stroke-width:0.99975002;stroke-miterlimit:4;stroke-dasharray:none;fill:#ffffff;fill-opacity:1"><path
             d="m 0,0 v -8.332 c 0,-1.047 0.238,-1.828 0.715,-2.344 0.476,-0.515 1.222,-0.773 2.238,-0.773 1.344,0 2.326,0.367 2.947,1.101 0.621,0.735 0.932,1.934 0.932,3.598 V 0 H 8.777 V -12.844 H 7.172 l -0.281,1.723 H 6.785 c -0.398,-0.633 -0.951,-1.117 -1.658,-1.453 -0.707,-0.336 -1.514,-0.504 -2.42,-0.504 -1.562,0 -2.732,0.371 -3.51,1.113 -0.777,0.742 -1.166,1.93 -1.166,3.563 V 0 Z"
             style="fill:#ffffff;fill-opacity:1;fill-rule:nonzero;stroke:none;stroke-width:0.99975002;stroke-miterlimit:4;stroke-dasharray:none"
             id="path42" /></g><g
           id="g44"
           transform="translate(137.7551,7.875)"
           style="stroke-width:0.99975002;stroke-miterlimit:4;stroke-dasharray:none;fill:#ffffff;fill-opacity:1"><path
             d="M 0,0 C 0.344,0 0.676,0.025 0.996,0.076 1.316,0.127 1.57,0.18 1.758,0.234 V -1.254 C 1.547,-1.355 1.236,-1.439 0.826,-1.506 0.416,-1.572 0.047,-1.605 -0.281,-1.605 c -2.485,0 -3.727,1.308 -3.727,3.925 v 7.641 h -1.84 v 0.937 l 1.84,0.809 0.82,2.742 h 1.125 V 11.473 H 1.664 V 9.961 H -2.063 V 2.402 c 0,-0.773 0.184,-1.367 0.551,-1.781 C -1.145,0.207 -0.641,0 0,0"
             style="fill:#ffffff;fill-opacity:1;fill-rule:nonzero;stroke:none;stroke-width:0.99975002;stroke-miterlimit:4;stroke-dasharray:none"
             id="path46" /></g><g
           id="g48"
           transform="translate(146.2278,7.875)"
           style="stroke-width:0.99975002;stroke-miterlimit:4;stroke-dasharray:none;fill:#ffffff;fill-opacity:1"><path
             d="M 0,0 C 0.344,0 0.676,0.025 0.996,0.076 1.316,0.127 1.57,0.18 1.758,0.234 V -1.254 C 1.547,-1.355 1.236,-1.439 0.826,-1.506 0.416,-1.572 0.047,-1.605 -0.281,-1.605 c -2.485,0 -3.727,1.308 -3.727,3.925 v 7.641 h -1.84 v 0.937 l 1.84,0.809 0.82,2.742 h 1.125 V 11.473 H 1.664 V 9.961 H -2.063 V 2.402 c 0,-0.773 0.184,-1.367 0.551,-1.781 C -1.145,0.207 -0.641,0 0,0"
             style="fill:#ffffff;fill-opacity:1;fill-rule:nonzero;stroke:none;stroke-width:0.99975002;stroke-miterlimit:4;stroke-dasharray:none"
             id="path50" /></g><g
           id="g52"
           transform="translate(162.5755,17.8359)"
           style="stroke-width:0.99975002;stroke-miterlimit:4;stroke-dasharray:none;fill:#ffffff;fill-opacity:1"><path
             d="M 0,0 H -3.27 V -11.332 H -5.215 V 0 h -2.297 v 0.879 l 2.297,0.703 v 0.715 c 0,3.156 1.379,4.734 4.137,4.734 0.68,0 1.476,-0.136 2.39,-0.41 L 0.809,5.062 C 0.059,5.305 -0.582,5.426 -1.113,5.426 -1.848,5.426 -2.391,5.182 -2.742,4.693 -3.094,4.205 -3.27,3.422 -3.27,2.344 V 1.512 H 0 Z"
             style="fill:#ffffff;fill-opacity:1;fill-rule:nonzero;stroke:none;stroke-width:0.99975002;stroke-miterlimit:4;stroke-dasharray:none"
             id="path54" /></g><g
           id="g56"
           transform="translate(166.22,12.9375)"
           style="stroke-width:0.99975002;stroke-miterlimit:4;stroke-dasharray:none;fill:#ffffff;fill-opacity:1"><path
             d="m 0,0 c 0,-1.641 0.328,-2.891 0.984,-3.75 0.657,-0.859 1.621,-1.289 2.895,-1.289 1.273,0 2.24,0.428 2.9,1.283 C 7.439,-2.9 7.77,-1.648 7.77,0 7.77,1.633 7.439,2.873 6.779,3.721 6.119,4.568 5.145,4.992 3.855,4.992 2.582,4.992 1.621,4.574 0.973,3.738 0.324,2.902 0,1.656 0,0 m 9.785,0 c 0,-2.094 -0.527,-3.729 -1.582,-4.904 -1.055,-1.176 -2.512,-1.764 -4.371,-1.764 -1.148,0 -2.168,0.27 -3.059,0.809 -0.89,0.539 -1.578,1.312 -2.062,2.32 -0.484,1.008 -0.727,2.187 -0.727,3.539 0,2.094 0.524,3.725 1.571,4.893 1.047,1.168 2.5,1.752 4.359,1.752 1.797,0 3.225,-0.598 4.283,-1.793 C 9.256,3.656 9.785,2.039 9.785,0"
             style="fill:#ffffff;fill-opacity:1;fill-rule:nonzero;stroke:none;stroke-width:0.99975002;stroke-miterlimit:4;stroke-dasharray:none"
             id="path58" /></g><g
           id="g60"
           transform="translate(185.2747,19.582)"
           style="stroke-width:0.99975002;stroke-miterlimit:4;stroke-dasharray:none;fill:#ffffff;fill-opacity:1"><path
             d="M 0,0 C 0.57,0 1.082,-0.047 1.535,-0.141 L 1.266,-1.945 c -0.532,0.117 -1,0.175 -1.407,0.175 -1.039,0 -1.927,-0.421 -2.666,-1.265 -0.738,-0.844 -1.107,-1.895 -1.107,-3.152 v -6.891 h -1.945 v 12.844 h 1.605 l 0.223,-2.379 h 0.093 c 0.477,0.836 1.051,1.48 1.723,1.933 C -1.543,-0.227 -0.805,0 0,0"
             style="fill:#ffffff;fill-opacity:1;fill-rule:nonzero;stroke:none;stroke-width:0.99975002;stroke-miterlimit:4;stroke-dasharray:none"
             id="path62" /></g><g
           id="g64"
           transform="translate(201.2356,17.8359)"
           style="stroke-width:0.99975002;stroke-miterlimit:4;stroke-dasharray:none;fill:#ffffff;fill-opacity:1"><path
             d="M 0,0 H -3.27 V -11.332 H -5.215 V 0 h -2.297 v 0.879 l 2.297,0.703 v 0.715 c 0,3.156 1.379,4.734 4.137,4.734 0.68,0 1.476,-0.136 2.39,-0.41 L 0.809,5.062 C 0.059,5.305 -0.582,5.426 -1.113,5.426 -1.848,5.426 -2.391,5.182 -2.742,4.693 -3.094,4.205 -3.27,3.422 -3.27,2.344 V 1.512 H 0 Z"
             style="fill:#ffffff;fill-opacity:1;fill-rule:nonzero;stroke:none;stroke-width:0.99975002;stroke-miterlimit:4;stroke-dasharray:none"
             id="path66" /></g><g
           id="g68"
           transform="translate(201.5403,19.3477)"
           style="stroke-width:0.99975002;stroke-miterlimit:4;stroke-dasharray:none;fill:#ffffff;fill-opacity:1"><path
             d="m 0,0 h 2.086 l 2.812,-7.324 c 0.618,-1.672 1,-2.879 1.149,-3.621 h 0.094 c 0.101,0.398 0.314,1.08 0.638,2.045 0.325,0.964 1.385,3.931 3.182,8.9 h 2.086 l -5.52,-14.625 c -0.547,-1.445 -1.185,-2.471 -1.916,-3.076 -0.73,-0.606 -1.627,-0.908 -2.689,-0.908 -0.594,0 -1.18,0.066 -1.758,0.199 v 1.558 c 0.43,-0.093 0.91,-0.14 1.441,-0.14 1.336,0 2.29,0.75 2.86,2.25 l 0.715,1.828 z"
             style="fill:#ffffff;fill-opacity:1;fill-rule:nonzero;stroke:none;stroke-width:0.99975002;stroke-miterlimit:4;stroke-dasharray:none"
             id="path70" /></g><g
           id="g72"
           transform="translate(223.9583,10.0078)"
           style="stroke-width:0.99975002;stroke-miterlimit:4;stroke-dasharray:none;fill:#ffffff;fill-opacity:1"><path
             d="m 0,0 c 0,-1.195 -0.445,-2.117 -1.336,-2.766 -0.891,-0.648 -2.141,-0.972 -3.75,-0.972 -1.703,0 -3.031,0.269 -3.984,0.808 v 1.805 c 0.617,-0.312 1.279,-0.559 1.986,-0.738 0.707,-0.18 1.389,-0.27 2.045,-0.27 1.016,0 1.797,0.162 2.344,0.487 0.547,0.324 0.82,0.818 0.82,1.482 0,0.5 -0.217,0.928 -0.65,1.283 -0.434,0.356 -1.28,0.776 -2.537,1.26 -1.196,0.445 -2.045,0.834 -2.549,1.166 -0.504,0.332 -0.879,0.709 -1.125,1.131 -0.246,0.422 -0.369,0.926 -0.369,1.511 0,1.047 0.425,1.874 1.277,2.479 0.851,0.605 2.019,0.908 3.504,0.908 1.383,0 2.734,-0.281 4.054,-0.844 L -0.961,7.148 C -2.25,7.68 -3.418,7.945 -4.465,7.945 -5.387,7.945 -6.082,7.801 -6.551,7.512 -7.02,7.223 -7.254,6.824 -7.254,6.316 -7.254,5.973 -7.166,5.68 -6.99,5.437 -6.814,5.195 -6.531,4.965 -6.141,4.746 -5.75,4.527 -5,4.211 -3.891,3.797 -2.367,3.242 -1.338,2.684 -0.803,2.121 -0.268,1.559 0,0.852 0,0"
             style="fill:#ffffff;fill-opacity:1;fill-rule:nonzero;stroke:none;stroke-width:0.99975002;stroke-miterlimit:4;stroke-dasharray:none"
             id="path74" /></g><path
           d="m 229.068,6.504 h -1.945 v 12.844 h 1.945 z m -2.11,16.324 c 0,0.445 0.11,0.772 0.328,0.979 0.219,0.207 0.493,0.31 0.821,0.31 0.312,0 0.582,-0.105 0.808,-0.316 0.227,-0.211 0.34,-0.535 0.34,-0.973 0,-0.437 -0.113,-0.764 -0.34,-0.978 -0.226,-0.215 -0.496,-0.323 -0.808,-0.323 -0.328,0 -0.602,0.108 -0.821,0.323 -0.218,0.214 -0.328,0.541 -0.328,0.978"
           style="fill:#ffffff;fill-opacity:1;fill-rule:nonzero;stroke:none;stroke-width:0.99975002;stroke-miterlimit:4;stroke-dasharray:none"
           id="path76" /><g
           id="g78"
           transform="translate(235.1145,13.0781)"
           style="stroke-width:0.99975002;stroke-miterlimit:4;stroke-dasharray:none;fill:#ffffff;fill-opacity:1"><path
             d="M 0,0 C 0.336,0.477 0.848,1.102 1.535,1.875 L 5.684,6.27 H 7.992 L 2.789,0.797 8.355,-6.574 H 6 L 1.465,-0.504 0,-1.77 V -6.574 H -1.922 V 11.66 H 0 V 1.992 C 0,1.562 -0.031,0.898 -0.094,0 Z"
             style="fill:#ffffff;fill-opacity:1;fill-rule:nonzero;stroke:none;stroke-width:0.99975002;stroke-miterlimit:4;stroke-dasharray:none"
             id="path80" /></g><g
           id="g82"
           transform="translate(247.7122,13.0781)"
           style="stroke-width:0.99975002;stroke-miterlimit:4;stroke-dasharray:none;fill:#ffffff;fill-opacity:1"><path
             d="M 0,0 C 0.336,0.477 0.848,1.102 1.535,1.875 L 5.684,6.27 H 7.992 L 2.789,0.797 8.355,-6.574 H 6 L 1.465,-0.504 0,-1.77 V -6.574 H -1.922 V 11.66 H 0 V 1.992 C 0,1.562 -0.031,0.898 -0.094,0 Z"
             style="fill:#ffffff;fill-opacity:1;fill-rule:nonzero;stroke:none;stroke-width:0.99975002;stroke-miterlimit:4;stroke-dasharray:none"
             id="path84" /></g><path
           d="M 33.081,57.905 H 11.024 v 22.062 h 22.057 z m 0,33.085 H 11.024 C 4.935,90.99 0,86.054 0,79.967 V 57.905 C 0,51.821 4.935,46.886 11.024,46.886 h 22.057 c 6.088,0 11.022,4.935 11.022,11.019 v 22.062 c 0,6.087 -4.934,11.023 -11.022,11.023"
           style="fill:#ffffff;fill-opacity:1;fill-rule:nonzero;stroke:none"
           id="path86" /><g
           id="g88"
           transform="translate(21.9783,78.0605)"
           style="fill:#ffffff;fill-opacity:1"><path
             d="m 0,0 c -4.997,0 -9.046,-4.054 -9.046,-9.049 0,-4.998 4.049,-9.045 9.046,-9.045 4.996,0 9.046,4.047 9.046,9.045 C 9.046,-4.054 4.996,0 0,0"
             style="fill:#ffffff;fill-opacity:1;fill-rule:nonzero;stroke:none"
             id="path90" /></g><g
           id="g92"
           transform="translate(74.9558,90.9443)"
           style="stroke-width:0.99975002;stroke-miterlimit:4;stroke-dasharray:none;fill:#ffffff;fill-opacity:1"><path
             d="m 0,0 21.479,-31.225 v 24.024 l -0.062,5.714 H 14.962 V 0 h 13.843 v -1.487 h -5.339 l -0.062,-5.714 v -37.185 l -0.993,-0.311 -28.805,41.905 v -33.649 l 0.061,-5.896 h 6.641 v -1.49 h -14.337 v 1.49 h 5.709 l 0.062,5.896 v 29.24 l -0.062,5.714 h -5.709 V 0 Z"
             style="fill:#ffffff;fill-opacity:1;fill-rule:nonzero;stroke:none;stroke-width:0.99975002;stroke-miterlimit:4;stroke-dasharray:none"
             id="path94" /></g><g
           id="g96"
           transform="translate(146.5965,90.9443)"
           style="stroke-width:0.99975002;stroke-miterlimit:4;stroke-dasharray:none;fill:#ffffff;fill-opacity:1"><path
             d="m 0,0 v -14.028 h -1.863 c -0.187,2.172 -0.436,4.902 -2.36,8.132 -2.235,3.786 -5.277,3.974 -8.256,4.097 h -3.478 l -0.06,-5.587 v -28.618 l 0.06,-6.333 h 6.707 v -1.49 h -20.361 v 1.49 h 6.702 l 0.064,6.333 v 28.618 l -0.064,5.587 h -2.856 c -3.6,-0.061 -6.331,-0.061 -8.938,-4.221 -2.048,-3.292 -2.235,-5.898 -2.36,-8.008 h -1.799 V 0 Z"
             style="fill:#ffffff;fill-opacity:1;fill-rule:nonzero;stroke:none;stroke-width:0.99975002;stroke-miterlimit:4;stroke-dasharray:none"
             id="path98" /></g><g
           id="g100"
           transform="translate(164.2263,90.9443)"
           style="stroke-width:0.99975002;stroke-miterlimit:4;stroke-dasharray:none;fill:#ffffff;fill-opacity:1"><path
             d="m 0,0 21.479,-31.225 v 24.024 l -0.061,5.714 H 14.961 V 0 h 13.843 v -1.487 h -5.339 l -0.063,-5.714 v -37.185 l -0.993,-0.311 -28.805,41.905 v -33.649 l 0.063,-5.896 h 6.645 v -1.49 h -14.343 v 1.49 h 5.714 l 0.058,5.896 v 29.24 l -0.058,5.714 h -5.714 V 0 Z"
             style="fill:#ffffff;fill-opacity:1;fill-rule:nonzero;stroke:none;stroke-width:0.99975002;stroke-miterlimit:4;stroke-dasharray:none"
             id="path102" /></g><g
           id="g104"
           transform="translate(217.1345,90.9443)"
           style="stroke-width:0.99975002;stroke-miterlimit:4;stroke-dasharray:none;fill:#ffffff;fill-opacity:1"><path
             d="m 0,0 v -1.487 h -6.148 l -0.059,-5.279 v -23.715 c 0.059,-6.146 0.186,-11.98 11.732,-11.98 11.67,0 12.415,5.091 12.6,10.616 v 25.079 l -0.06,5.279 H 11.797 V 0 h 13.715 v -1.487 h -5.397 l -0.062,-5.279 v -22.598 c -0.065,-8.133 -0.126,-15.083 -16.204,-15.083 -2.294,0 -7.761,0.246 -11.235,1.675 -5.525,2.36 -5.649,7.201 -5.712,13.161 v 22.845 l -0.063,5.279 H -18.5 V 0 Z"
             style="fill:#ffffff;fill-opacity:1;fill-rule:nonzero;stroke:none;stroke-width:0.99975002;stroke-miterlimit:4;stroke-dasharray:none"
             id="path106" /></g></g></g></g></svg>
